<?xml version="1.0" encoding="UTF-8"?>
<svg width="36px" height="36px" viewBox="0 0 36 36" version="1.1" xmlns="http://www.w3.org/2000/svg" xmlns:xlink="http://www.w3.org/1999/xlink">
    <!-- Generator: Sketch 45.2 (43514) - http://www.bohemiancoding.com/sketch -->
    <title>interactive copy 4</title>
    <desc>Created with Sketch.</desc>
    <defs>
        <rect id="path-1" x="0" y="4" width="15" height="23"></rect>
        <rect id="path-2" x="15" y="4" width="15" height="23"></rect>
        <polygon id="path-3" points="14 4.07147535 27 0 27 22.9285247 14 27"></polygon>
    </defs>
    <g id="Page-1" stroke="none" stroke-width="1" fill="none" fill-rule="evenodd">
        <g id="interactive-copy-4">
            <g id="Group-2-Copy-3" transform="translate(3.000000, 2.000000)">
                <g id="Rectangle-2-Copy-6">
                    <use fill="#FFFFFF" fill-rule="evenodd" xlink:href="#path-1"></use>
                    <rect stroke="#000000" stroke-width="1" x="0.5" y="4.5" width="14" height="22"></rect>
                </g>
                <g id="Rectangle-2-Copy-7">
                    <use fill="#FFFFFF" fill-rule="evenodd" xlink:href="#path-2"></use>
                    <rect stroke="#000000" stroke-width="1" x="15.5" y="4.5" width="14" height="22"></rect>
                </g>
                <g id="Rectangle-2-Copy-6">
                    <use fill="#FFFFFF" fill-rule="evenodd" xlink:href="#path-3"></use>
                    <path stroke="#000000" stroke-width="1" d="M14.5,4.43882867 L14.5,26.3194563 L26.5,22.5611713 L26.5,0.680543732 L14.5,4.43882867 Z"></path>
                </g>
                <polygon id="Path-2" fill="#000000" opacity="0.3" points="16.3241613 26.7071852 25.7154453 22.615177 26.1596848 4.74924377 28 4.30920273 28 27"></polygon>
            </g>
            <circle id="Oval" fill="#000000" cx="11" cy="14" r="1"></circle>
            <circle id="Oval" fill="#000000" cx="11" cy="21" r="1"></circle>
            <path d="M28.1793786,11.0743011 C24.667534,11.0743011 21.8206214,13.9212136 21.8206214,17.4330583" id="Oval-2" stroke="#000000" transform="translate(25.000000, 14.253680) rotate(-45.000000) translate(-25.000000, -14.253680) "></path>
        </g>
    </g>
</svg>