<?xml version="1.0" encoding="UTF-8"?>
<svg width="32px" height="32px" viewBox="0 0 32 32" version="1.1" xmlns="http://www.w3.org/2000/svg" xmlns:xlink="http://www.w3.org/1999/xlink">
    <!-- Generator: Sketch 46.2 (44496) - http://www.bohemiancoding.com/sketch -->
    <title>icon-outline-filled</title>
    <desc>Created with Sketch.</desc>
    <defs></defs>
    <g id="Page-1" stroke="none" stroke-width="1" fill="none" fill-rule="evenodd">
        <g id="icon-outline-filled" fill="#000000">
            <path d="M5,8 L16,8 L16,24 L5,24 L5,8 Z M17,8 L28,8 L28,24 L17,24 L17,8 Z M8,13 L8,21 L14,21 L14,13 L8,13 Z M8,11 L8,12 L14,12 L14,11 L8,11 Z M19,13 L19,21 L25,21 L25,13 L19,13 Z M19,11 L19,12 L25,12 L25,11 L19,11 Z M9,20 L9,14 L13,14 L13,20 L9,20 Z M20,20 L20,14 L24,14 L24,20 L20,20 Z" id="Combined-Shape"></path>
        </g>
    </g>
</svg>