<?xml version="1.0" encoding="UTF-8"?>
<svg width="36px" height="36px" viewBox="0 0 36 36" version="1.1" xmlns="http://www.w3.org/2000/svg" xmlns:xlink="http://www.w3.org/1999/xlink">
    <!-- Generator: Sketch 45.2 (43514) - http://www.bohemiancoding.com/sketch -->
    <title>icon-interactive</title>
    <desc>Created with Sketch.</desc>
    <defs></defs>
    <g id="Page-1" stroke="none" stroke-width="1" fill="none" fill-rule="evenodd">
        <g id="icon-interactive" fill="#000000">
            <g id="Group-2-Copy-3" transform="translate(3.000000, 2.000000)" fill-rule="nonzero">
                <path d="M1,5 L1,26 L14,26 L14,5 L1,5 Z M0,4 L15,4 L15,27 L0,27 L0,4 Z" id="Rectangle-2-Copy-6"></path>
                <path d="M29,5 L28,4 L28,5 L29,5 Z M28,26 L29,26 L28,27 L28,26 Z M25.4092533,5 L25.4092533,4 L29,4 L29,27 L14,27 L14.4960545,26 L28,26 L28,5 L25.4092533,5 Z M29,26 L28,27 L28,26 L29,26 Z M28,4 L29,5 L28,5 L28,4 Z M28,5 L25.4092533,5 L25.4092533,4 L29,4 L29,27 L14,27 L14.4960545,26 L28,26 L28,5 Z" id="Rectangle-2-Copy-7"></path>
                <path d="M15,4.78817695 L15,25.6047192 L25,22.2118231 L25,1.39528082 L15,4.78817695 Z M14,4.07147535 L26,0 L26,22.9285247 L14,27 L14,4.07147535 Z" id="Rectangle-2-Copy-6"></path>
            </g>
            <polygon id="Path-2" opacity="0.3" points="18.3241613 28.7071852 27.7154453 24.615177 28.1596848 6.74924377 30 6.30920273 30 29"></polygon>
        </g>
    </g>
</svg>