<?xml version="1.0" encoding="UTF-8"?>
<svg width="48px" height="48px" viewBox="0 0 48 48" version="1.1" xmlns="http://www.w3.org/2000/svg" xmlns:xlink="http://www.w3.org/1999/xlink">
    <!-- Generator: Sketch 46.2 (44496) - http://www.bohemiancoding.com/sketch -->
    <title>logo rad3 copy 13</title>
    <desc>Created with Sketch.</desc>
    <defs>
        <path d="M17.4354839,0 L0,0 L1.77635684e-15,25.5 C2.08071603e-15,27.9852814 2.01471863,30 4.5,30 L16.1386806,30 L17.4354839,30 C19.9474887,30 21.983871,32.0147186 21.983871,34.5 C21.983871,34.7555342 21.9623428,35.0060936 21.9209831,35.25 L25.016129,35.25 L25.016129,6.75 L24.2580645,6.75 C24.2580645,3.02207794 21.2034911,0 17.4354839,0 Z" id="path-1"></path>
        <path d="M40.1774194,0 L22.7419355,0 L22.7419355,25.5 C22.7419355,27.9852814 24.7566541,30 27.2419355,30 L27.2419355,30 L38.6612903,30 L38.6612903,30.2560586 C39.1355035,30.0902313 39.6458108,30 40.1774194,30 C42.6894242,30 44.7258065,32.0147186 44.7258065,34.5 C44.7258065,34.7555342 44.7042783,35.0060936 44.6629186,35.25 L47,35.25 L47,6.75 C47,3.02207794 43.9454266,0 40.1774194,0 Z" id="path-2"></path>
    </defs>
    <g id="Page-1" stroke="none" stroke-width="1" fill="none" fill-rule="evenodd">
        <g id="logo-rad3-copy-13">
            <rect id="Rectangle-7" stroke="#000000" stroke-width="1.5" x="0.75" y="8.75" width="45.5" height="21.5"></rect>
            <g id="Group-11-Copy-7" transform="translate(0.000000, 3.000000)">
                <path d="M23.5,7.5 L28.8064516,7.5 L28.8064516,10.5 L31.6314521,10.5 L31.6314521,25.5 L47,25.5 L47,28.5 C47,31.8137085 44.2848236,34.5 40.9354839,34.5 L28.8064516,34.5 C26.523141,34.5 24.5345526,35.7484315 23.5,37.5929946 L23.5,7.5 Z M6.06451613,34.5 C2.71517636,34.5 4.10175823e-16,31.8137085 0,28.5 L0,25.5 L15.3685479,25.5 L15.3685479,10.5 L18.1935484,10.5 L18.1935484,9 L23.5,9 L23.5,37.5929946 C22.4654474,35.7484315 20.476859,34.5 18.1935484,34.5 L6.06451613,34.5 Z" id="Combined-Shape" fill="#000000" fill-rule="nonzero"></path>
                <g id="Combined-Shape-Copy">
                    <use fill="#FFFFFF" fill-rule="evenodd" xlink:href="#path-1"></use>
                    <path stroke="#000000" stroke-width="1" d="M0.5,0.5 L0.5,25.5 C0.5,27.709139 2.290861,29.5 4.5,29.5 L17.4354839,29.5 C20.2224411,29.5 22.483871,31.7373721 22.483871,34.5 C22.483871,34.5835922 22.4817953,34.6669434 22.4776592,34.75 L24.516129,34.75 L24.516129,7.25 L23.7580645,7.25 L23.7580645,6.75 C23.7580645,3.29942445 20.9285387,0.5 17.4354839,0.5 L0.5,0.5 Z"></path>
                </g>
                <g id="Combined-Shape-Copy-2" transform="translate(34.870968, 17.625000) scale(-1, 1) translate(-34.870968, -17.625000) ">
                    <use fill="#FFFFFF" fill-rule="evenodd" xlink:href="#path-2"></use>
                    <path stroke="#000000" stroke-width="1" d="M46.5,34.75 L46.5,35.25 L47,34.75 L46.5,34.75 Z M45.2195947,34.75 L44.6629186,34.75 L44.6629186,35.25 L45.1558813,35.3335928 C45.188509,35.1411813 45.2098134,34.9464143 45.2195947,34.75 Z M39.1612903,29.601412 C38.9353421,29.6471669 38.7132552,29.7081978 38.4962458,29.7840837 L38.6612903,30.2560586 L39.1612903,30.2560586 L39.1612903,29.601412 Z M23.2419355,0.5 L23.2419355,1.21210231e-14 L22.7419355,0.5 L23.2419355,0.5 Z M46.5,34.75 L45.2195947,34.75 C45.2237308,34.6669434 45.2258065,34.5835922 45.2258065,34.5 C45.2258065,31.7373721 42.9643766,29.5 40.1774194,29.5 C39.8329536,29.5 39.4929618,29.5342479 39.1612903,29.601412 L39.1612903,29.5 L27.2419355,29.5 C25.0327965,29.5 23.2419355,27.709139 23.2419355,25.5 L23.2419355,0.5 L40.1774194,0.5 C43.6704742,0.5 46.5,3.29942445 46.5,6.75 L46.5,34.75 Z"></path>
                </g>
            </g>
        </g>
    </g>
</svg>