<?xml version="1.0" encoding="UTF-8"?>
<svg width="40px" height="40px" viewBox="0 0 40 40" version="1.1" xmlns="http://www.w3.org/2000/svg" xmlns:xlink="http://www.w3.org/1999/xlink">
    <!-- Generator: Sketch 46.2 (44496) - http://www.bohemiancoding.com/sketch -->
    <title>logo40 copy</title>
    <desc>Created with Sketch.</desc>
    <defs></defs>
    <g id="Page-1" stroke="none" stroke-width="1" fill="none" fill-rule="evenodd">
        <g id="logo40-copy" fill-rule="nonzero" fill="#000000">
            <g id="Group-11-Copy-7" transform="translate(0.000000, 3.000000)">
                <path d="M19.5,29 L20.9508069,26.71894 L23.4000396,24.8510697 L28.2523483,24.8510697 L35.9577593,24.8510697 L39,21.5769231 L39,24.1153846 C39,26.9192918 36.7469813,29 33.9677419,29 L23.9032258,29 C22.0085638,29 20.3584585,30.2486728 19.5,31.809457 L19.5,29 Z M5.03225806,29 C2.25301868,29 3.40358662e-16,26.9192918 0,24.1153846 L0,21.5769231 L1.85611343,24.4788296 L15.821204,25.0544866 L17.3938577,26.1882542 L19.5,29.8853432 L19.5,31.809457 C18.6415415,30.2486728 16.9914362,29 15.0967742,29 L5.03225806,29 Z" id="Combined-Shape"></path>
                <path d="M19.0032117,5.71153846 C19.0032117,3.1100444 16.8873545,1 14.275939,1 L1,1 L1,21.6346154 C1,23.1533984 2.23121694,24.3846154 3.75,24.3846154 L14.275939,24.3846154 C16.8131922,24.3846154 18.8932912,26.341882 19.0804162,28.8269231 L19.0032117,5.71153846 Z M14.2727273,0 C17.4358127,2.18208788e-15 20,2.55714287 20,5.71153846 L20,29.8269231 L19.0175769,29.9338281 C19.0522967,29.7274458 18.4545455,29.4085289 18.4545455,29.1923077 C18.4545455,27.0893773 16.7450872,25.3846154 14.6363636,25.3846154 L3.75,25.3846154 C1.67893219,25.3846154 -1.90456553e-16,23.7056832 -4.4408921e-16,21.6346154 L0,0 L14.2727273,0 Z" id="Combined-Shape-Copy"></path>
                <path d="M38.0032117,5.71153846 C38.0032117,3.1100444 35.8873545,1 33.275939,1 L20,1 L20,21.6346154 C20,23.1533984 21.2312169,24.3846154 22.75,24.3846154 L33.275939,24.3846154 C35.8131922,24.3846154 37.8932912,26.341882 38.0804162,28.8269231 L38.0032117,5.71153846 Z M33.2727273,0 C36.4358127,2.18208788e-15 39,2.55714287 39,5.71153846 L39,29.8269231 L38.0175769,29.9338281 C38.0522967,29.7274458 37.4545455,29.4085289 37.4545455,29.1923077 C37.4545455,27.0893773 35.7450872,25.3846154 33.6363636,25.3846154 L22.75,25.3846154 C20.6789322,25.3846154 19,23.7056832 19,21.6346154 L19,0 L33.2727273,0 Z" id="Combined-Shape-Copy-2" transform="translate(29.000000, 14.966914) scale(-1, 1) translate(-29.000000, -14.966914) "></path>
            </g>
        </g>
    </g>
</svg>