<?xml version="1.0" encoding="UTF-8"?>
<svg width="32px" height="32px" viewBox="0 0 32 32" version="1.1" xmlns="http://www.w3.org/2000/svg" xmlns:xlink="http://www.w3.org/1999/xlink">
    <!-- Generator: Sketch 45.2 (43514) - http://www.bohemiancoding.com/sketch -->
    <title>logo rad3 copy 8</title>
    <desc>Created with Sketch.</desc>
    <defs>
        <path d="M11.5,0 L1,0 L1,17 C1,18.6568542 2.34314575,20 4,20 L10.6446617,20 L11.5,20 C13.1568542,20 14.5,21.3431458 14.5,23 C14.5,23.1703561 14.4858006,23.3373958 14.4585208,23.5 L16.5,23.5 L16.5,4.5 L16,4.5 C16,2.01471863 13.9852814,0 11.5,0 Z" id="path-1"></path>
        <path d="M25.5,0 L15,0 L15,17 C15,18.6568542 16.3431458,20 18,20 L18,20 L24.5,20 L24.5,20.1707057 C24.8127789,20.0601542 25.1493646,20 25.5,20 C27.1568542,20 28.5,21.3431458 28.5,23 C28.5,23.1703561 28.4858006,23.3373958 28.4585208,23.5 L30,23.5 L30,4.5 C30,2.01471863 27.9852814,0 25.5,0 Z" id="path-2"></path>
    </defs>
    <g id="Page-1" stroke="none" stroke-width="1" fill="none" fill-rule="evenodd">
        <g id="logo-rad3-copy-8">
            <rect id="Rectangle-7" stroke="#000000" x="0.5" y="6.5" width="30" height="14"></rect>
            <g id="Group-11-Copy-7" transform="translate(0.000000, 3.000000)">
                <path d="M15.5,5 L19,5 L19,7 L20.8632982,7 L20.8632982,17 L31,17 L31,18 L31,18 C31,20.7614237 28.7614237,23 26,23 L19,23 C17.4939866,23 16.1823645,23.8322876 15.5,25.0619964 L15.5,5 Z M0,18 L0,17 L10.1367018,17 L10.1367018,7 L12,7 L12,6 L15.5,6 L15.5,25.0619964 C14.8176355,23.8322876 13.5060134,23 12,23 L5,23 L5,23 C2.23857625,23 1.2263553e-15,20.7614237 8.8817842e-16,18 Z" id="Combined-Shape" fill="#000000" fill-rule="nonzero"></path>
                <g id="Combined-Shape-Copy">
                    <use fill="#FFFFFF" fill-rule="evenodd" xlink:href="#path-1"></use>
                    <path stroke="#000000" stroke-width="1" d="M1.5,0.5 L1.5,17 C1.5,18.3807119 2.61928813,19.5 4,19.5 L11.5,19.5 C13.4329966,19.5 15,21.0670034 15,23 L16,23 L16,5 L15.5,5 L15.5,4.5 C15.5,2.290861 13.709139,0.5 11.5,0.5 L1.5,0.5 Z"></path>
                </g>
                <g id="Combined-Shape-Copy-2" transform="translate(22.500000, 11.750000) scale(-1, 1) translate(-22.500000, -11.750000) ">
                    <use fill="#FFFFFF" fill-rule="evenodd" xlink:href="#path-2"></use>
                    <path stroke="#000000" stroke-width="1" d="M29.5,23 L29.5,23.5 L30,23 L29.5,23 Z M29,23 L28.4585208,23 L28.4585208,23.5 L28.9516294,23.5827279 C28.983746,23.3912933 29,23.1965678 29,23 Z M25,19.5355067 C24.7722345,19.5681255 24.5491847,19.6230087 24.333377,19.6992858 L24.5,20.1707057 L25,20.1707057 L25,19.5355067 Z M15.5,0.5 L15.5,1.09716158e-14 L15,0.5 L15.5,0.5 Z M29.5,23 L29,23 C29,21.0670034 27.4329966,19.5 25.5,19.5 C25.3315075,19.5 25.1645235,19.5119449 25,19.5355067 L25,19.5 L18,19.5 C16.6192881,19.5 15.5,18.3807119 15.5,17 L15.5,0.5 L25.5,0.5 C27.709139,0.5 29.5,2.290861 29.5,4.5 L29.5,23 Z"></path>
                </g>
            </g>
        </g>
    </g>
</svg>