<?xml version="1.0" encoding="UTF-8"?>
<svg width="32px" height="32px" viewBox="0 0 32 32" version="1.1" xmlns="http://www.w3.org/2000/svg" xmlns:xlink="http://www.w3.org/1999/xlink">
    <!-- Generator: Sketch 45.2 (43514) - http://www.bohemiancoding.com/sketch -->
    <title>logo rad3 copy 11</title>
    <desc>Created with Sketch.</desc>
    <defs></defs>
    <g id="Page-1" stroke="none" stroke-width="1" fill="none" fill-rule="evenodd">
        <g id="logo-rad3-copy-11" fill-rule="nonzero" fill="#000000">
            <g id="Group-11-Copy-7" transform="translate(0.000000, 3.000000)">
                <path d="M15.4484835,21.9315535 L17.1227413,20.3216359 L19.2336655,19.4039304 L23.4629767,19.6344661 L29.3066427,19.4039304 L31,17 L31,19 C31,21.209139 29.209139,23 27,23 L19,23 C17.4939866,23 16.1823645,23.8322876 15.5,25.0619964 L15.4484835,21.9315535 Z M4,23 C1.790861,23 2.705415e-16,21.209139 0,19 L0,17 L2.25954327,19.4767418 L8.06206381,19.4767418 L12,19.4767418 L14.4525209,20.6990044 L15.5,21.9119892 L15.5,25.0619964 C14.8176355,23.8322876 13.5060134,23 12,23 L4,23 Z" id="Combined-Shape"></path>
                <path d="M15.4689474,23.5 C15.4620257,23.555364 15.4539536,23.6105251 15.444738,23.6654559 L14.4585208,23.5 L14.4585208,22.5 C14.4858006,22.6626042 14.5,22.8296439 14.5,23 C14.5,23.1703561 14.4858006,23.3373958 14.4585208,23.5 L15.4689474,23.5 Z M15.4964714,22.8304465 L15.4964714,6.1867518 L15,5.5 L15,4.5 C15,2.56700338 13.4329966,1 11.5,1 L1,1 L1,17 C1,18.1045695 1.8954305,19 3,19 L11.5,19 C13.6523369,19 15.407629,20.6999505 15.4964714,22.8304465 Z M11.5,0 C13.9852814,0 16,2.01471863 16,4.5 L16,6.64883295 L16,23 L14.4585208,23.5 C14.4858006,23.3373958 14.5,23.1703561 14.5,23 C14.5,21.3431458 13.1568542,20 11.5,20 L3,20 C1.34314575,20 2.02906125e-16,18.6568542 0,17 L0,0 L11.5,0 Z" id="Combined-Shape-Copy"></path>
                <path d="M30,4.5 C30,2.56700338 28.4329966,1 26.5,1 L16,1 L16,17 C16,18.1045695 16.8954305,19 18,19 L26.5,19 C28.0060134,19 29.3176355,19.8322876 30,21.0619964 L30,4.5 Z M31,22.5 L30,23.5 L30,21.0619964 C30.2418591,21.4978577 30.4046648,21.9836469 30.4690531,22.5 C30.4894783,22.6637971 30.5,22.8306698 30.5,23 C30.5,23.1679855 30.4895891,23.3348948 30.4689474,23.5 L29.4585208,23.5 C29.4858006,23.3373958 29.5,23.1703561 29.5,23 C29.5,22.8296439 29.4858006,22.6626042 29.4585208,22.5 L30,22.5 L30.4690531,22.5 L31,22.5 Z M25.5,20.1707057 L25.5,20 L18,20 C16.3431458,20 15,18.6568542 15,17 L15,0 L26.5,0 C28.9852814,0 31,2.01471863 31,4.5 L31,23.5 L29.4585208,23.5 C29.4858006,23.3373958 29.5,23.1703561 29.5,23 C29.5,21.3431458 28.1568542,20 26.5,20 C26.1493646,20 25.8127789,20.0601542 25.5,20.1707057 Z" id="Combined-Shape-Copy-2" transform="translate(23.000000, 11.750000) scale(-1, 1) translate(-23.000000, -11.750000) "></path>
            </g>
        </g>
    </g>
</svg>